<?xml version="1.0" encoding="iso-8859-1"?>
<!-- Generator: Adobe Illustrator 19.0.0, SVG Export Plug-In . SVG Version: 6.00 Build 0)  -->
<svg version="1.1" id="Capa_1" xmlns="http://www.w3.org/2000/svg" xmlns:xlink="http://www.w3.org/1999/xlink" x="0px" y="0px"
	 viewBox="0 0 512.001 512.001" style="enable-background:new 0 0 512.001 512.001;" xml:space="preserve">
<path style="fill:#FC9F65;" d="M507.384,247.159l-65.971-45.971c-8.184-5.703-17.266-9.337-26.583-10.977
	c5.429-7.748,9.281-16.74,11.035-26.559l14.143-79.155c1.319-7.384-5.12-13.823-12.504-12.504l-79.155,14.142
	c-9.819,1.754-18.811,5.606-26.559,11.035c-1.64-9.318-5.275-18.399-10.977-26.583L264.842,4.616
	c-4.288-6.154-13.395-6.154-17.683,0l-45.971,65.971c-5.703,8.184-9.337,17.265-10.977,26.583
	c-7.748-5.429-16.74-9.281-26.559-11.035L84.497,71.993c-7.384-1.319-13.823,5.12-12.504,12.504l14.142,79.155
	c1.754,9.819,5.606,18.811,11.035,26.559c-9.318,1.64-18.399,5.275-26.583,10.977L4.615,247.159c-6.154,4.288-6.154,13.395,0,17.683
	l65.971,45.971c8.184,5.703,17.265,9.337,26.583,10.977c-5.429,7.748-9.281,16.74-11.035,26.559l-14.142,79.155
	c-1.319,7.384,5.12,13.823,12.504,12.504l79.155-14.143c9.819-1.754,18.811-5.606,26.559-11.035
	c1.64,9.317,5.275,18.399,10.977,26.583l45.971,65.971c4.288,6.154,13.395,6.154,17.683,0l45.971-65.971
	c5.703-8.184,9.337-17.265,10.977-26.583c7.748,5.429,16.74,9.281,26.559,11.035l79.155,14.142
	c7.384,1.319,13.823-5.12,12.504-12.504l-14.143-79.155c-1.754-9.819-5.606-18.811-11.035-26.559
	c9.317-1.64,18.399-5.275,26.583-10.977l65.971-45.971C513.539,260.554,513.539,251.448,507.384,247.159z"/>
<circle style="fill:#FBDD56;" cx="256" cy="256.001" r="152.17"/>
<g>
	<ellipse style="fill:#FF6E6E;" cx="180.391" cy="242.441" rx="27.899" ry="22.22"/>
	<ellipse style="fill:#FF6E6E;" cx="331.61" cy="242.441" rx="27.899" ry="22.22"/>
</g>
<g>
	<path style="fill:#414B58;" d="M185.053,223.704c-4.143,0-7.5-3.358-7.5-7.5v-11.975c0-4.142,3.357-7.5,7.5-7.5s7.5,3.358,7.5,7.5
		v11.975C192.553,220.346,189.196,223.704,185.053,223.704z"/>
	<path style="fill:#414B58;" d="M256,245.579L256,245.579c-11.163,0-20.213-9.05-20.213-20.213v-14.695
		c0-3.047,2.47-5.518,5.518-5.518h29.39c3.047,0,5.518,2.47,5.518,5.518v14.695C276.214,236.53,267.163,245.579,256,245.579z"/>
	<path style="fill:#414B58;" d="M326.947,223.704c-4.143,0-7.5-3.358-7.5-7.5v-11.975c0-4.142,3.357-7.5,7.5-7.5s7.5,3.358,7.5,7.5
		v11.975C334.447,220.346,331.09,223.704,326.947,223.704z"/>
</g>
<path style="opacity:0.08;enable-background:new    ;" d="M217.314,108.801c-65.302,17.116-113.482,76.529-113.482,147.2
	c0,84.04,68.128,152.168,152.169,152.168c30.053,0,58.068-8.716,81.663-23.752C143.684,368.06,127.593,174.323,217.314,108.801z"/>
<g>
	<path style="fill:#FC9F65;" d="M172.512,61.937c-2.943,0-5.735-1.744-6.932-4.632l-10.33-24.939
		c-1.586-3.827,0.231-8.214,4.059-9.799c3.826-1.585,8.214,0.233,9.799,4.059l10.33,24.939c1.586,3.827-0.231,8.214-4.059,9.799
		C174.441,61.753,173.469,61.937,172.512,61.937z"/>
	<path style="fill:#FC9F65;" d="M54.431,180.012c-0.957,0-1.929-0.184-2.867-0.573l-24.938-10.33
		c-3.827-1.585-5.645-5.973-4.059-9.799c1.585-3.827,5.976-5.643,9.799-4.059l24.938,10.33c3.827,1.585,5.645,5.973,4.059,9.799
		C60.167,178.268,57.375,180.012,54.431,180.012z"/>
	<path style="fill:#FC9F65;" d="M29.498,357.324c-2.943,0-5.735-1.744-6.932-4.632c-1.586-3.827,0.231-8.214,4.059-9.799
		l24.938-10.33c3.828-1.586,8.214,0.232,9.799,4.059c1.586,3.827-0.231,8.214-4.059,9.799l-24.938,10.33
		C31.427,357.14,30.455,357.324,29.498,357.324z"/>
	<path style="fill:#FC9F65;" d="M162.176,490.008c-0.957,0-1.929-0.184-2.867-0.573c-3.827-1.586-5.645-5.973-4.059-9.799
		l10.33-24.939c1.585-3.827,5.975-5.643,9.799-4.059c3.827,1.586,5.645,5.973,4.059,9.799l-10.33,24.939
		C167.911,488.264,165.12,490.008,162.176,490.008z"/>
	<path style="fill:#FC9F65;" d="M349.824,490.008c-2.943,0-5.735-1.744-6.932-4.632l-10.33-24.939
		c-1.586-3.827,0.231-8.214,4.059-9.799c3.828-1.585,8.214,0.233,9.799,4.059l10.33,24.939c1.586,3.827-0.231,8.214-4.059,9.799
		C351.753,489.824,350.78,490.008,349.824,490.008z"/>
	<path style="fill:#FC9F65;" d="M482.503,357.324c-0.957,0-1.929-0.184-2.867-0.573l-24.939-10.33
		c-3.827-1.585-5.645-5.973-4.059-9.799c1.585-3.827,5.974-5.643,9.799-4.059l24.939,10.33c3.827,1.585,5.645,5.973,4.059,9.799
		C488.237,355.581,485.445,357.324,482.503,357.324z"/>
	<path style="fill:#FC9F65;" d="M457.569,180.012c-2.943,0-5.735-1.744-6.932-4.632c-1.586-3.827,0.231-8.214,4.059-9.799
		l24.939-10.33c3.828-1.585,8.214,0.233,9.799,4.059c1.586,3.827-0.232,8.214-4.059,9.799l-24.939,10.33
		C459.498,179.828,458.525,180.012,457.569,180.012z"/>
	<path style="fill:#FC9F65;" d="M339.488,61.937c-0.957,0-1.929-0.184-2.867-0.573c-3.827-1.585-5.645-5.973-4.059-9.799
		l10.33-24.939c1.585-3.827,5.975-5.642,9.799-4.059c3.827,1.585,5.645,5.973,4.059,9.799l-10.33,24.939
		C345.224,60.193,342.432,61.937,339.488,61.937z"/>
</g>
<g>
</g>
<g>
</g>
<g>
</g>
<g>
</g>
<g>
</g>
<g>
</g>
<g>
</g>
<g>
</g>
<g>
</g>
<g>
</g>
<g>
</g>
<g>
</g>
<g>
</g>
<g>
</g>
<g>
</g>
</svg>
