<svg xmlns="http://www.w3.org/2000/svg" style="color:#000" class="travelling" viewBox="0 0 160 40"><defs><style>.cls-3{stroke-miterlimit:10}.cls-2,.cls-3{fill:#fff}.cls-3{stroke:#000;stroke-width:.25px}</style></defs><rect width="160" height="40" rx="6"/><rect x="2" y="2" width="156" height="36" rx="4" style="stroke-miterlimit:10;stroke:#f2f2f2"/><path d="M5.79 35V5h44.42v30zm14.77-3.41-.76.86-.13.15c-.23.26-.25.5-.06.68s.44.13.67-.13c.4-.46.79-.92 1.21-1.36a.68.68 0 0 1 .42-.19h10.95a.54.54 0 0 1 .46.2c.41.49.83 1 1.26 1.42a.4.4 0 0 0 .61.06.43.43 0 0 0 0-.6l-.76-.86-.17-.22a2.4 2.4 0 0 0 .27 0 12.48 12.48 0 0 0 1.94-.13 4.33 4.33 0 0 0 3.35-4v-3.33a2.06 2.06 0 0 0 0-.21c-.19.1-.34.21-.51.28a.43.43 0 0 0-.28.47v3a3.53 3.53 0 0 1-3.38 3.13H19.7a3.69 3.69 0 0 1-2.63-.95 3.51 3.51 0 0 1-.93-1.36 68.93 68.93 0 0 0 16.29-3.13 2.61 2.61 0 0 0 2 2.47A2.36 2.36 0 0 0 37 27a2.56 2.56 0 0 0 .19-3.35l.19-.09c1-.45 2.06-.87 3.07-1.34a27.34 27.34 0 0 0 6.35-3.87 6.73 6.73 0 0 0 1.84-2.23 2 2 0 0 0-.68-2.65 5.88 5.88 0 0 0-2.12-.91 21.93 21.93 0 0 0-5.54-.46h-.4c0-.56 0-1.09-.11-1.61a4.39 4.39 0 0 0-4.33-3.7H19.51a4.42 4.42 0 0 0-4.44 4.43v4.96a5.22 5.22 0 0 1 .54-.31.45.45 0 0 0 .27-.48v-3.71a6.18 6.18 0 0 1 .05-1.06 3.57 3.57 0 0 1 3.65-3h15.69a3.5 3.5 0 0 1 .65 0 3.66 3.66 0 0 1 3.1 3.85v4a.29.29 0 0 0 .08.21c.22.15.45.27.73.43V13H42a16.29 16.29 0 0 1 3.81.47 4.24 4.24 0 0 1 1.82.85 1 1 0 0 1 .33 1.33 5.1 5.1 0 0 1-.71 1.15 11.05 11.05 0 0 1-2.48 2.14 40.54 40.54 0 0 1-8.11 4.08.43.43 0 0 1-.33 0 2.58 2.58 0 0 0-3.6 1.24.53.53 0 0 1-.35.3q-3.4 1.08-6.9 1.83c-1.17.25-2.35.46-3.61.71a2.75 2.75 0 0 0 .64-2.12 2.55 2.55 0 0 0-1.13-1.82 2.63 2.63 0 0 0-3.33.34 2.56 2.56 0 0 0-.75 1.72 2.69 2.69 0 0 0 1.17 2.31l-2.51.18V24.66c0-.12 0-.29-.1-.35a6 6 0 0 0-.72-.44v3.84H13.5a15.82 15.82 0 0 1-3.56-.42 4.56 4.56 0 0 1-2.06-.94 1.1 1.1 0 0 1-.3-1.27 4.27 4.27 0 0 1 1.07-1.55 14.47 14.47 0 0 1 3.38-2.54c1.44-.79 2.92-1.51 4.37-2.26.11-.06.27-.13.29-.22a6.85 6.85 0 0 0 0-.79l-.2.07c-.66.3-1.32.59-2 .91a26 26 0 0 0-6 3.78 6.19 6.19 0 0 0-1.65 2.08 2 2 0 0 0 .77 2.7 6.33 6.33 0 0 0 2 .82 20.9 20.9 0 0 0 5.4.48c.21 0 .3 0 .38.25a4.4 4.4 0 0 0 4.17 2.84zm5.56-16.35 2-.52c.07 0 .17-.09.18-.15v-.73l-2.17.54v-2.93a1 1 0 0 0-1.08-1.1H18.33a1.06 1.06 0 0 0-1.16 1.13v8.05a1 1 0 0 0 1.1 1.08h6.7a1.08 1.08 0 0 0 1.13-1.13v-2.82zm11.61-3a7.82 7.82 0 0 0 0-.84 1 1 0 0 0-1.19-1.09L30 11.79a1 1 0 0 0-1.18 1.19v8a1 1 0 0 0 1 1h6.84a1.19 1.19 0 0 0 .55-.15 1.1 1.1 0 0 0 .49-1.08v-6.23l.7-.09v-.78z"/><path class="cls-2" d="M20.56 31.59h-1a4.4 4.4 0 0 1-4.17-2.84c-.08-.21-.17-.25-.38-.25a20.9 20.9 0 0 1-5.4-.48 6.33 6.33 0 0 1-2-.82 2 2 0 0 1-.77-2.7 6.19 6.19 0 0 1 1.65-2.08 26 26 0 0 1 6-3.78c.65-.32 1.31-.61 2-.91l.2-.07a6.85 6.85 0 0 1 0 .79c0 .09-.18.16-.29.22-1.45.75-2.93 1.47-4.37 2.26a14.47 14.47 0 0 0-3.38 2.54 4.27 4.27 0 0 0-1.07 1.55 1.1 1.1 0 0 0 .3 1.27 4.56 4.56 0 0 0 2.06.94 15.82 15.82 0 0 0 3.56.42h1.64v-3.84a6 6 0 0 1 .72.44c.08.06.1.23.1.35V27.65l2.51-.18a2.69 2.69 0 0 1-1.17-2.31 2.56 2.56 0 0 1 .75-1.72 2.63 2.63 0 0 1 3.33-.34 2.55 2.55 0 0 1 1.13 1.82 2.75 2.75 0 0 1-.64 2.12c1.26-.25 2.44-.46 3.61-.71q3.49-.75 6.9-1.83a.53.53 0 0 0 .35-.3 2.58 2.58 0 0 1 3.6-1.24.43.43 0 0 0 .33 0 40.54 40.54 0 0 0 8.11-4.08 11.05 11.05 0 0 0 2.48-2.14 5.1 5.1 0 0 0 .71-1.15 1 1 0 0 0-.33-1.33 4.24 4.24 0 0 0-1.82-.85A16.29 16.29 0 0 0 42 13h-2.12v3.24c-.28-.16-.51-.28-.73-.43a.29.29 0 0 1-.08-.21v-4a3.66 3.66 0 0 0-3.1-3.85 3.5 3.5 0 0 0-.65 0H19.59a3.57 3.57 0 0 0-3.65 3 6.18 6.18 0 0 0-.05 1.06v3.71a.45.45 0 0 1-.27.48 5.22 5.22 0 0 0-.54.31v-4.96a4.42 4.42 0 0 1 4.44-4.43h15.92a4.39 4.39 0 0 1 4.33 3.7c.08.52.07 1 .11 1.61h.4a21.93 21.93 0 0 1 5.54.46 5.88 5.88 0 0 1 2.12.91 2 2 0 0 1 .68 2.65 6.73 6.73 0 0 1-1.84 2.23 27.34 27.34 0 0 1-6.35 3.87c-1 .47-2 .89-3.07 1.34l-.19.09A2.56 2.56 0 0 1 37 27a2.36 2.36 0 0 1-2.52.77 2.61 2.61 0 0 1-2-2.47 68.93 68.93 0 0 1-16.29 3.13 3.51 3.51 0 0 0 .93 1.36 3.69 3.69 0 0 0 2.63.95h15.89a3.53 3.53 0 0 0 3.38-3.13c.08-1 0-2 0-3a.43.43 0 0 1 .28-.47c.17-.07.32-.18.51-.28a2.06 2.06 0 0 1 0 .21v3.33a4.33 4.33 0 0 1-3.35 4 12.48 12.48 0 0 1-1.94.13 2.4 2.4 0 0 1-.27 0l.17.22.76.86a.43.43 0 0 1 0 .6.4.4 0 0 1-.61-.06c-.43-.46-.85-.93-1.26-1.42a.54.54 0 0 0-.46-.2H21.91a.68.68 0 0 0-.42.19c-.42.44-.81.9-1.21 1.36-.23.26-.47.31-.67.13s-.17-.42.06-.68l.13-.15z"/><path class="cls-2" d="M26.12 15.24V19.47A1.08 1.08 0 0 1 25 20.6h-6.7a1 1 0 0 1-1.1-1.08v-8.05a1.06 1.06 0 0 1 1.16-1.13H25a1 1 0 0 1 1.08 1.1v2.93l2.17-.54v.73c0 .06-.11.13-.18.15zM37.73 12.25h.71V13l-.7.09v6.23a1.1 1.1 0 0 1-.49 1.08 1.19 1.19 0 0 1-.55.15h-6.84a1 1 0 0 1-1-1v-8a1 1 0 0 1 1.18-1.19h6.53a1 1 0 0 1 1.19 1.09 7.82 7.82 0 0 1-.03.8z"/><path class="cls-3" d="M63.66 12v1.41h-5.05v15.12h-1.55V13.39H52V12zM69.38 15.94a7.7 7.7 0 0 1 1.38.12 4.15 4.15 0 0 1 .9.24l-.3 1.33a3.34 3.34 0 0 0-.74-.2 8.16 8.16 0 0 0-1.47-.11 6.39 6.39 0 0 0-1.54.15 3.38 3.38 0 0 0-.76.24v10.8h-1.48V16.75a10.83 10.83 0 0 1 1.57-.53 9 9 0 0 1 2.44-.28zM77.46 15.89a5 5 0 0 1 2 .35 3.39 3.39 0 0 1 1.31.95 3.75 3.75 0 0 1 .73 1.45 6.9 6.9 0 0 1 .23 1.81v7.78a4.81 4.81 0 0 1-.66.15l-1 .18c-.38.07-.8.12-1.27.16s-.94.06-1.42.06a6.23 6.23 0 0 1-1.72-.22 3.75 3.75 0 0 1-1.37-.68 3.29 3.29 0 0 1-.91-1.19 4.32 4.32 0 0 1-.33-1.78 3.67 3.67 0 0 1 .37-1.72 3.22 3.22 0 0 1 1-1.18 4.67 4.67 0 0 1 1.57-.68 8.84 8.84 0 0 1 2-.21h.68l.68.1.57.12a1.23 1.23 0 0 1 .33.11v-.77a8.55 8.55 0 0 0-.09-1.25 2.9 2.9 0 0 0-.4-1.1 2.2 2.2 0 0 0-.87-.78 3.09 3.09 0 0 0-1.47-.3 7.11 7.11 0 0 0-1.93.19c-.43.13-.74.23-.93.31l-.21-1.36a5.14 5.14 0 0 1 1.2-.36 9.7 9.7 0 0 1 1.91-.14zm.14 11.5c.58 0 1.08 0 1.51-.06a10.76 10.76 0 0 0 1.11-.15v-4.34a3.82 3.82 0 0 0-.8-.25 6.45 6.45 0 0 0-1.5-.14 7.49 7.49 0 0 0-1.14.09 2.92 2.92 0 0 0-1.09.36 2.1 2.1 0 0 0-1.14 2 2.91 2.91 0 0 0 .21 1.17 1.86 1.86 0 0 0 .62.76 2.48 2.48 0 0 0 1 .42 5.36 5.36 0 0 0 1.22.14zM89 26.84c.32-.68.65-1.46 1-2.35s.66-1.79 1-2.74.6-1.9.87-2.86.49-1.87.67-2.71H94c-.27 1.13-.58 2.24-.92 3.34s-.69 2.17-1.06 3.22-.77 2.06-1.17 3-.8 1.89-1.18 2.74h-1.38c-.4-.85-.8-1.77-1.19-2.74s-.79-2-1.16-3-.73-2.12-1.07-3.22-.64-2.21-.91-3.34h1.57c.18.84.41 1.75.67 2.71s.56 1.91.87 2.86.64 1.86 1 2.74.65 1.67.93 2.35zM95.71 22.34a8.29 8.29 0 0 1 .44-2.83 6.27 6.27 0 0 1 1.16-2 4.6 4.6 0 0 1 1.64-1.2 4.7 4.7 0 0 1 1.9-.4 4.34 4.34 0 0 1 3.45 1.48 6.82 6.82 0 0 1 1.29 4.56v.74h-8.27a5.57 5.57 0 0 0 1.07 3.48 3.91 3.91 0 0 0 3.19 1.22 6.13 6.13 0 0 0 1.91-.24 9 9 0 0 0 1-.4l.27 1.33a5.46 5.46 0 0 1-1.2.45 7 7 0 0 1-2.06.27 6.55 6.55 0 0 1-2.64-.48 4.68 4.68 0 0 1-1.8-1.34 5.3 5.3 0 0 1-1-2 9.55 9.55 0 0 1-.35-2.64zm8.36-1a5.05 5.05 0 0 0-.87-3 2.74 2.74 0 0 0-2.32-1.07 3 3 0 0 0-1.43.33 3.6 3.6 0 0 0-1.09.9 4.22 4.22 0 0 0-.73 1.3 5.69 5.69 0 0 0-.31 1.55zM111.88 28.73a4.94 4.94 0 0 1-1.31-.2 2.44 2.44 0 0 1-.94-.55 2.41 2.41 0 0 1-.57-1 5 5 0 0 1-.19-1.46V10.29l1.48-.29v15.51a3.73 3.73 0 0 0 .1.92 1.12 1.12 0 0 0 .85.84 5.79 5.79 0 0 0 .78.17zM117.69 28.73a4.88 4.88 0 0 1-1.31-.2 2.37 2.37 0 0 1-.94-.55 2.41 2.41 0 0 1-.57-1 4.7 4.7 0 0 1-.19-1.46V10.29l1.48-.29v15.51a3.3 3.3 0 0 0 .1.92 1.28 1.28 0 0 0 .31.55 1.24 1.24 0 0 0 .53.29 6 6 0 0 0 .79.17zM122.33 12.46a1.17 1.17 0 0 1-.32.87 1.06 1.06 0 0 1-.77.32 1.08 1.08 0 0 1-.78-.32 1.2 1.2 0 0 1-.31-.87 1.17 1.17 0 0 1 .31-.87 1.05 1.05 0 0 1 .78-.33 1 1 0 0 1 .77.33 1.14 1.14 0 0 1 .32.87zM122 28.51h-1.48V16.18H122zM125.91 16.61c.44-.13 1-.27 1.77-.43a13.34 13.34 0 0 1 2.74-.24 5.47 5.47 0 0 1 2.24.41 3.5 3.5 0 0 1 1.44 1.15 5 5 0 0 1 .76 1.8 11.19 11.19 0 0 1 .23 2.32v6.89h-1.48v-6.39a11.7 11.7 0 0 0-.18-2.22 3.85 3.85 0 0 0-.56-1.48 2.29 2.29 0 0 0-1.05-.82 4.54 4.54 0 0 0-1.63-.25 11.82 11.82 0 0 0-1.81.12 5.77 5.77 0 0 0-1 .21v10.83h-1.48zM146.54 27.08a3.11 3.11 0 0 1-.41.28 6.13 6.13 0 0 1-.67.32 5.16 5.16 0 0 1-.91.27 5.1 5.1 0 0 1-1.15.11 6 6 0 0 1-2-.33 4.59 4.59 0 0 1-1.68-1.05 5.4 5.4 0 0 1-1.15-1.85 7.77 7.77 0 0 1-.43-2.76 7.37 7.37 0 0 1 .39-2.43 5.82 5.82 0 0 1 1.1-1.95 5.16 5.16 0 0 1 1.76-1.28 5.64 5.64 0 0 1 2.33-.47 12.29 12.29 0 0 1 2.63.23c.66.15 1.2.3 1.63.44v11.26a5 5 0 0 1-1.37 3.95 6.14 6.14 0 0 1-4.12 1.18 10.75 10.75 0 0 1-2.06-.18 10.45 10.45 0 0 1-1.58-.42l.29-1.4a7 7 0 0 0 1.49.45 9.45 9.45 0 0 0 1.91.19 4.47 4.47 0 0 0 3-.85 3.74 3.74 0 0 0 .94-2.9zm0-9.4a8.24 8.24 0 0 0-1-.22 10 10 0 0 0-1.76-.11 4 4 0 0 0-1.69.34 3.71 3.71 0 0 0-1.27 1 4.35 4.35 0 0 0-.79 1.51 6.82 6.82 0 0 0 0 4 4.07 4.07 0 0 0 .83 1.42 3 3 0 0 0 1.18.8 3.66 3.66 0 0 0 1.34.25 5.09 5.09 0 0 0 1.83-.31 3.87 3.87 0 0 0 1.29-.71z"/></svg>
